<?xml version="1.0" encoding="UTF-8"?>
<svg width="1200pt" height="1200pt" version="1.1" viewBox="0 0 1200 1200" xmlns="http://www.w3.org/2000/svg">
 <g fill="#fff">
  <path d="m303.6 763.2 838.8-339.6c30-12 37.199-51.602 14.398-74.398l-13.199-12c-80.398-75.602-199.2-93.602-297.6-44.398l-127.2 63.602-265.2-126c-30-14.398-64.801-14.398-94.801-1.1992l-70.801 31.199c-18 7.1992-20.398 31.199-6 43.199l210 164.4-218.4 109.2-123.6-67.199c-6-3.6016-14.398-3.6016-21.602-1.1992l-81.598 31.199c-16.801 6-21.602 27.602-9.6016 40.801l134.4 151.2c33.598 37.199 86.398 49.199 132 31.199z"/>
  <path d="m1147.2 886.8h-1064.4c-13.199 0-22.801 10.801-22.801 22.801v46.801c0 13.199 10.801 22.801 22.801 22.801h1064.4c13.199 0 22.801-10.801 22.801-22.801v-46.801c0-12-10.801-22.801-22.801-22.801z"/>
 </g>
</svg>
